name C:\Users\u0101727\Documents\MyRepositories\upper-imu-dc\Results\main_tracking\Case_43\FLX01_orientations_groundFrame.mot
datacolumns 13
datarows 43
range 2.01000000 2.43000000
endheader 
time	radius_imu_[0][0]	radius_imu_[0][1]	radius_imu_[0][2]	radius_imu_[1][0]	radius_imu_[1][1]	radius_imu_[1][2]	radius_imu_[2][0]	radius_imu_[2][1]	radius_imu_[2][2]	radius_imu_x	radius_imu_y	radius_imu_z	
          2.01000000	          0.43065019	         -0.86872971	         -0.24464076	         -0.36768630	         -0.41642792	          0.83150139	         -0.82422521	         -0.26813518	         -0.49875478	         -2.11108666	         -0.24714918	          1.11057535	
          2.02000000	          0.43611731	         -0.86376297	         -0.25241875	         -0.36877542	         -0.42741100	          0.82542385	         -0.82085710	         -0.26689580	         -0.50493589	         -2.11979565	         -0.25517914	          1.10323328	
          2.03000000	          0.44175594	         -0.85862466	         -0.26002958	         -0.36978658	         -0.43834646	          0.81921320	         -0.81737970	         -0.26573685	         -0.51115003	         -2.12864195	         -0.26305283	          1.09562206	
          2.04000000	          0.44755482	         -0.85332075	         -0.26746659	         -0.37071469	         -0.44922433	          0.81287645	         -0.81379684	         -0.26465298	         -0.51739105	         -2.13761839	         -0.27076287	          1.08775232	
          2.05000000	          0.45350206	         -0.84785768	         -0.27472391	         -0.37155406	         -0.46003455	          0.80642160	         -0.81011324	         -0.26363907	         -0.52365158	         -2.14671597	         -0.27830255	          1.07963567	
          2.06000000	          0.45958541	         -0.84224227	         -0.28179642	         -0.37229874	         -0.47076719	          0.79985743	         -0.80633424	         -0.26269035	         -0.52992346	         -2.15592433	         -0.28566589	          1.07128442	
          2.07000000	          0.46579243	         -0.83648157	         -0.28867975	         -0.37294289	         -0.48141263	          0.79319322	         -0.80246559	         -0.26180233	         -0.53619821	         -2.16523231	         -0.29284759	          1.06271135	
          2.08000000	          0.47211080	         -0.83058281	         -0.29537026	         -0.37348116	         -0.49196180	          0.78643843	         -0.79851313	         -0.26097084	         -0.54246751	         -2.17462853	         -0.29984305	          1.05392942	
          2.09000000	          0.47852861	         -0.82455319	         -0.30186488	         -0.37390909	         -0.50240637	          0.77960236	         -0.79448245	         -0.26019201	         -0.54872375	         -2.18410205	         -0.30664818	          1.04495143	
          2.10000000	          0.48503473	         -0.81839974	         -0.30816094	         -0.37422339	         -0.51273890	          0.77269378	         -0.79037849	         -0.25946229	         -0.55496050	         -2.19364301	         -0.31325929	          1.03578961	
          2.11000000	          0.49161908	         -0.81212921	         -0.31425600	         -0.37442226	         -0.52295303	          0.76572064	         -0.78620522	         -0.25877844	         -0.56117294	         -2.20324317	         -0.31967285	          1.02645529	
          2.12000000	          0.49827293	         -0.80574785	         -0.32014760	         -0.37450544	         -0.53304351	          0.75868985	         -0.78196532	         -0.25813760	         -0.56735811	         -2.21289627	         -0.32588529	          1.01695854	
          2.13000000	          0.50498904	         -0.79926142	         -0.32583316	         -0.37447419	         -0.54300620	          0.75160717	         -0.77766004	         -0.25753728	         -0.57351496	         -2.22259818	         -0.33189285	          1.00730804	
          2.14000000	          0.51176165	         -0.79267510	         -0.33130982	         -0.37433109	         -0.55283800	          0.74447725	         -0.77328924	         -0.25697534	         -0.57964422	         -2.23234677	         -0.33769146	          0.99751103	
          2.15000000	          0.51858633	         -0.78599354	         -0.33657446	         -0.37407965	         -0.56253671	          0.73730379	         -0.76885150	         -0.25645001	         -0.58574803	         -2.24214149	         -0.34327675	          0.98757347	
          2.16000000	          0.52545977	         -0.77922088	         -0.34162383	         -0.37372391	         -0.57210086	          0.73008975	         -0.76434447	         -0.25595980	         -0.59182946	         -2.25198281	         -0.34864414	          0.97750025	
          2.17000000	          0.53237944	         -0.77236087	         -0.34645463	         -0.37326800	         -0.58152957	          0.72283771	         -0.75976518	         -0.25550351	         -0.59789199	         -2.26187166	         -0.35378901	          0.96729554	
          2.18000000	          0.53934334	         -0.76541691	         -0.35106370	         -0.37271574	         -0.59082235	          0.71555009	         -0.75511042	         -0.25508020	         -0.60393903	         -2.27180879	         -0.35870687	          0.95696308	
          2.19000000	          0.54634966	         -0.75839214	         -0.35544819	         -0.37207034	         -0.59997900	          0.70822939	         -0.75037705	         -0.25468915	         -0.60997354	         -2.28179435	         -0.36339352	          0.94650645	
          2.20000000	          0.55339658	         -0.75128955	         -0.35960565	         -0.37133428	         -0.60899948	          0.70087837	         -0.74556225	         -0.25432979	         -0.61599779	         -2.29182752	         -0.36784524	          0.93592937	
          2.21000000	          0.56048205	         -0.74411206	         -0.36353421	         -0.37050915	         -0.61788380	          0.69350023	         -0.74066378	         -0.25400168	         -0.62201311	         -2.30190627	         -0.37205887	          0.92523592	
          2.22000000	          0.56760351	         -0.73686258	         -0.36723261	         -0.36959576	         -0.62663196	          0.68609865	         -0.73568012	         -0.25370438	         -0.62801979	         -2.31202717	         -0.37603200	          0.91443079	
          2.23000000	          0.57475780	         -0.72954419	         -0.37070034	         -0.36859413	         -0.63524385	          0.67867785	         -0.73061059	         -0.25343742	         -0.63401706	         -2.32218539	         -0.37976297	          0.90351944	
          2.24000000	          0.58194108	         -0.72216011	         -0.37393762	         -0.36750368	         -0.64371922	          0.67124259	         -0.72545546	         -0.25320019	         -0.64000316	         -2.33237476	         -0.38325103	          0.89250825	
          2.25000000	          0.58914879	         -0.71471382	         -0.37694541	         -0.36632343	         -0.65205770	          0.66379809	         -0.72021583	         -0.25299191	         -0.64597543	         -2.34258789	         -0.38649622	          0.88140445	
          2.26000000	          0.59637578	         -0.70720902	         -0.37972533	         -0.36505218	         -0.66025880	          0.65634993	         -0.71489358	         -0.25281164	         -0.65193055	         -2.35281650	         -0.38949937	          0.87021607	
          2.27000000	          0.60361642	         -0.69964962	         -0.38227952	         -0.36368874	         -0.66832192	          0.64890393	         -0.70949117	         -0.25265831	         -0.65786477	         -2.36305164	         -0.39226193	          0.85895180	
          2.28000000	          0.61086478	         -0.69203973	         -0.38461049	         -0.36223206	         -0.67624642	          0.64146607	         -0.70401148	         -0.25253078	         -0.66377409	         -2.37328395	         -0.39478582	          0.84762081	
          2.29000000	          0.61811473	         -0.68438368	         -0.38672103	         -0.36068138	         -0.68403154	          0.63404243	         -0.69845767	         -0.25242789	         -0.66965442	         -2.38350386	         -0.39707333	          0.83623266	
          2.30000000	          0.62536005	         -0.67668598	         -0.38861407	         -0.35903628	         -0.69167644	          0.62663918	         -0.69283314	         -0.25234856	         -0.67550163	         -2.39370160	         -0.39912696	          0.82479720	
          2.31000000	          0.63259440	         -0.66895138	         -0.39029267	         -0.35729667	         -0.69918016	          0.61926262	         -0.68714148	         -0.25229180	         -0.68131156	         -2.40386722	         -0.40094945	          0.81332459	
          2.32000000	          0.63981129	         -0.66118493	         -0.39176013	         -0.35546275	         -0.70654160	          0.61191927	         -0.68138663	         -0.25225673	         -0.68707991	         -2.41399047	         -0.40254386	          0.80182535	
          2.33000000	          0.64700399	         -0.65339195	         -0.39302010	         -0.35353494	         -0.71375952	          0.60461591	         -0.67557300	         -0.25224257	         -0.69280214	         -2.42406067	         -0.40391369	          0.79031044	
          2.34000000	          0.65416542	         -0.64557809	         -0.39407681	         -0.35151377	         -0.72083257	          0.59735959	         -0.66970566	         -0.25224856	         -0.69847333	         -2.43406662	         -0.40506316	          0.77879132	
          2.35000000	          0.66128808	         -0.63774931	         -0.39493530	         -0.34939980	         -0.72775936	          0.59015769	         -0.66379052	         -0.25227393	         -0.70408807	         -2.44399656	         -0.40599742	          0.76727998	
          2.36000000	          0.66836407	         -0.62991181	         -0.39560156	         -0.34719363	         -0.73453853	          0.58301778	         -0.65783437	         -0.25231779	         -0.70964053	         -2.45383829	         -0.40672275	          0.75578888	
          2.37000000	          0.67538512	         -0.62207191	         -0.39608267	         -0.34489586	         -0.74116890	          0.57594749	         -0.65184491	         -0.25237909	         -0.71512447	         -2.46357936	         -0.40724666	          0.74433073	
          2.38000000	          0.68234278	         -0.61423598	         -0.39638680	         -0.34250713	         -0.74764955	          0.56895432	         -0.64583062	         -0.25245657	         -0.72053348	         -2.47320740	         -0.40757789	          0.73291831	
          2.39000000	          0.68922864	         -0.60641021	         -0.39652306	         -0.34002824	         -0.75397997	          0.56204537	         -0.63980050	         -0.25254873	         -0.72586119	         -2.48271054	         -0.40772632	          0.72156409	
          2.40000000	          0.69603451	         -0.59860054	         -0.39650141	         -0.33746017	         -0.76016014	          0.55522716	         -0.63376384	         -0.25265383	         -0.73110153	         -2.49207778	         -0.40770273	          0.71027998	
          2.41000000	          0.70275267	         -0.59081245	         -0.39633235	         -0.33480420	         -0.76619061	          0.54850532	         -0.62772990	         -0.25276985	         -0.73624899	         -2.50129938	         -0.40751859	          0.69907700	
          2.42000000	          0.70937608	         -0.58305091	         -0.39602678	         -0.33206199	         -0.77207256	          0.54188448	         -0.62170765	         -0.25289445	         -0.74129885	         -2.51036722	         -0.40718579	          0.68796505	
          2.43000000	          0.71589846	         -0.57532026	         -0.39559574	         -0.32923560	         -0.77780780	          0.53536805	         -0.61570554	         -0.25302496	         -0.74624732	         -2.51927500	         -0.40671642	          0.67695280	
